{"title":"Saw VII 2010.720p.BRRip.x264.Feel-Free","uid":6067444,"size":1950333907,"categoryP":"video","categoryS":"hd___movies","magnet":"?xt=urn:btih:0dcba3e97415a77cda1934fbf60e2aa132a9bd05&amp;dn=Saw+VII+2010.720p.BRRip.x264.Feel-Free&amp;tr=udp%3A%2F%2Ftracker.openbittorrent.com%3A80&amp;tr=udp%3A%2F%2Fopen.demonii.com%3A1337&amp;tr=udp%3A%2F%2Ftracker.coppersurfer.tk%3A6969&amp;tr=udp%3A%2F%2Fexodus.desync.com%3A6969","seeders":0,"leechers":0,"uploader":"neon","files":-1,"time":1293409140,"description":"\n\nGenre:Horror | Mystery | Thriller\nLanguage:English\n &lt;a href=&quot; http://www.imdb.com/title/tt1477076/&quot; rel=&quot;nofollow&quot; target=&quot;_NEW&quot;&gt; http://www.imdb.com/title/tt1477076/&lt;/a&gt;\nSource:Bluray.x264.DTS.HDChina\nSubtitles:Romana\n\n\nFormat : Matroska\nFile size : 1.81 GiB\nDuration : 1h 30mn\nOverall bit rate : 2 877 Kbps\n\n\nVideo\nFormat settings, CABAC : Yes\nFormat settings, ReFrames : 4 frames\nCodec ID : V_MPEG4/ISO/AVC\nDuration : 1h 30mn\nBit rate : 2 500 Kbps\nWidth : 1 280 pixels\nHeight : 720 pixels\nDisplay aspect ratio : 16:9\nFrame rate mode : Variable\nFrame rate : 23.976 fps\nColor space : YUV\nChroma subsampling : 4:2:0\nBit depth : 8 bits\nScan type : Progressive\nBits/(Pixel*Frame) : 0.113\nStream size : 1.53 GiB (85%)\nWriting library : x264\n\n\nAudio\nID : 2\nFormat : AC-3\nFormat/Info : Audio Coding 3\nMode extension : CM (complete main)\nCodec ID : A_AC3\nDuration : 1h 30mn\nBit rate mode : Constant\nBit rate : 384 Kbps\nChannel(s) : 6 channels\nChannel positions : Front: L C R, Side: L R, LFE\nSampling rate : 48.0 KHz\nBit depth : 16 bits\nVideo delay : -1mn 5s\nStream size : 247 MiB (13%)\nLanguage : English\n\n\nPlot:\nAs a deadly battle rages over Jigsaw's brutal legacy, a group of Jigsaw survivors gathers to seek the support of self-help guru and fellow survivor Bobby Dagen, a man whose own dark secrets unleash a new wave of terror\n","torrent":{"xt":"urn:btih:0dcba3e97415a77cda1934fbf60e2aa132a9bd05","amp;dn":"Saw+VII+2010.720p.BRRip.x264.Feel-Free","amp;tr":["udp%3A%2F%2Ftracker.openbittorrent.com%3A80","udp%3A%2F%2Fopen.demonii.com%3A1337","udp%3A%2F%2Ftracker.coppersurfer.tk%3A6969","udp%3A%2F%2Fexodus.desync.com%3A6969"],"infoHash":"0dcba3e97415a77cda1934fbf60e2aa132a9bd05","infoHashBuffer":{"type":"Buffer","data":[13,203,163,233,116,21,167,124,218,25,52,251,246,14,42,161,50,169,189,5]},"announce":[],"urlList":[]}}